<?xml version="1.0" encoding="UTF-8" standalone="no"?>
<!-- Created with Inkscape (http://www.inkscape.org/) -->

<svg
   width="480"
   height="480"
   viewBox="0 0 127 127"
   version="1.1"
   id="svg5"
   inkscape:version="1.1 (c68e22c387, 2021-05-23)"
   sodipodi:docname="cartomancer.svg"
   xmlns:inkscape="http://www.inkscape.org/namespaces/inkscape"
   xmlns:sodipodi="http://sodipodi.sourceforge.net/DTD/sodipodi-0.dtd"
   xmlns="http://www.w3.org/2000/svg"
   xmlns:svg="http://www.w3.org/2000/svg">
  <sodipodi:namedview
     id="namedview7"
     pagecolor="#ffffff"
     bordercolor="#666666"
     borderopacity="1.0"
     inkscape:pageshadow="2"
     inkscape:pageopacity="0.0"
     inkscape:pagecheckerboard="0"
     inkscape:document-units="mm"
     showgrid="false"
     units="px"
     width="480px"
     inkscape:zoom="0.72337262"
     inkscape:cx="-53.222916"
     inkscape:cy="205.28839"
     inkscape:window-width="1920"
     inkscape:window-height="1001"
     inkscape:window-x="-9"
     inkscape:window-y="-9"
     inkscape:window-maximized="1"
     inkscape:current-layer="g12314" />
  <defs
     id="defs2" />
  <g
     inkscape:label="Calque 1"
     inkscape:groupmode="layer"
     id="layer1">
    <path
       style="fill:#a7654d;fill-opacity:1;stroke:none;stroke-width:0.264583px;stroke-linecap:butt;stroke-linejoin:miter;stroke-opacity:1"
       d="M 21.397167,85.040024 C 28.163792,74.981527 42.977218,65.471674 42.977218,65.471674 L 42.611452,58.339285 C 26.555778,42.59001 58.26386,15.698303 59.436576,65.288792 c 0,0 23.591747,9.509852 27.432264,18.653942 -17.152895,57.570206 -42.118142,57.483666 -65.471673,1.09729 z"
       id="path42"
       sodipodi:nodetypes="cccccc" />
    <path
       style="fill:#bcbcbc;fill-opacity:1;stroke:none;stroke-width:0.264583px;stroke-linecap:butt;stroke-linejoin:miter;stroke-opacity:1"
       d="m 16.093596,131.12624 c 0,0 -1.463054,-36.027718 5.303571,-46.086216 6.766625,-10.058497 21.580049,-19.56835 21.580049,-19.56835 l 14.26478,49.926716 2.19458,-50.109598 c 0,0 23.59175,9.509852 27.43226,18.653942 3.84052,9.144087 18.105314,44.988926 18.105314,44.988926 v 0 z"
       id="path42-2"
       sodipodi:nodetypes="cscccsccc" />
    <path
       style="fill:#ff6e38;stroke:none;stroke-width:0.264583px;stroke-linecap:butt;stroke-linejoin:miter;stroke-opacity:1;fill-opacity:1"
       d="m 42.611452,58.339285 c 0,0 -11.155788,-1.463055 -11.521551,-9.692735 -0.365762,-8.229679 -1.09729,-25.237683 7.863917,-28.346673 8.961208,-3.108991 26.700738,0.365763 23.408868,19.751231 0,0 -2.90288,18.569785 -19.751234,18.288177 z"
       id="path42-7"
       sodipodi:nodetypes="csscc" />
    <path
       style="fill:#ff6e38;fill-opacity:1;stroke:none;stroke-width:0.264583px;stroke-linecap:butt;stroke-linejoin:miter;stroke-opacity:1"
       d="m 76.810344,129.66317 c 0,0 1.019079,-19.55931 9.326971,-30.358368 6.149051,-7.992874 6.400861,-20.299876 6.400861,-20.299876 0,0 -3.108989,-1.09729 -3.291872,-4.93781 -0.182883,-3.840517 5.669336,-10.790023 5.669336,-10.790023 0,0 2.926109,1.280173 2.377463,3.291872 -0.548645,2.011698 -1.645936,6.217981 -1.645936,6.217981 0,0 6.173563,-3.510649 9.052643,-5.577896 2.09224,-1.502283 2.11656,-3.481631 5.94366,-4.937808 1.09729,-0.274322 3.10899,-0.274322 3.10899,-0.274322 0,0 0.27521,9.403205 -4.4806,13.533251 -3.47476,3.017551 -6.85807,5.303571 -6.85807,5.303571 0,0 0.18289,11.70443 -1.28021,23.500308 -0.5176,6.45263 -1.715468,13.33608 -5.477682,20.73337 -2.802486,5.51027 -11.713205,9.80788 -11.713205,9.80788 z"
       id="path5210"
       sodipodi:nodetypes="cscscscaccsccscc" />
    <g
       id="g12314"
       transform="matrix(1.4605137,0.39134345,-0.39134345,1.4605137,-39.803571,-60.529507)">
      <circle
         style="fill:#00ffab;fill-opacity:1;stroke:none;stroke-width:0.264583;stroke-opacity:1"
         id="path9083"
         cx="99.579124"
         cy="53.127155"
         r="3.7490764" />
      <circle
         style="fill:#00ffab;fill-opacity:1;stroke:none;stroke-width:0.264583;stroke-opacity:1"
         id="path9085"
         cx="118.0959"
         cy="43.11438"
         r="3.0632696" />
      <circle
         style="fill:#00ffab;fill-opacity:1;stroke:none;stroke-width:0.264583;stroke-opacity:1"
         id="path9087"
         cx="89.977837"
         cy="46.63485"
         r="2.8346674" />
      <circle
         style="fill:#00ffab;fill-opacity:1;stroke:none;stroke-width:0.264583;stroke-opacity:1"
         id="path9089"
         cx="101.36224"
         cy="24.094673"
         r="4.8006468" />
      <circle
         style="fill:#00ffab;fill-opacity:1;stroke:none;stroke-width:0.264583;stroke-opacity:1"
         id="path9091"
         cx="111.14639"
         cy="16.962284"
         r="2.7986889" />
      <path
         style="fill:none;fill-opacity:1;stroke:#00ffab;stroke-width:1.984081;stroke-linecap:butt;stroke-linejoin:miter;stroke-miterlimit:4;stroke-dasharray:none;stroke-opacity:1"
         d="m 90.069272,47.45782 9.784175,5.760775 18.745383,-9.875615 -16.18504,-18.5625 8.59545,-8.046798"
         id="path9206" />
    </g>
    <path
       style="fill:#ffffff;stroke:#000000;stroke-width:1;stroke-linecap:butt;stroke-linejoin:miter;stroke-opacity:1;fill-opacity:1;stroke-miterlimit:4;stroke-dasharray:none"
       d="m 43.525863,22.860221 c 0,0 -3.017552,1.463055 -4.0234,4.846369 -1.00585,3.383311 0.822968,7.315268 0.822968,7.315268 0,0 4.319577,-1.932794 5.02925,-5.120687 0.795595,-3.573858 -1.828818,-7.04095 -1.828818,-7.04095 z"
       id="path12368"
       sodipodi:nodetypes="cscsc" />
    <circle
       style="fill:#000000;fill-opacity:1;stroke:none;stroke-width:1;stroke-miterlimit:4;stroke-dasharray:none;stroke-opacity:1"
       id="path12757"
       cx="41.971367"
       cy="28.529556"
       r="1.1887316" />
  </g>
</svg>
